<svg width="24" height="24" viewBox="0 0 24 24" fill="none" xmlns="http://www.w3.org/2000/svg">
<path fill-rule="evenodd" clip-rule="evenodd" d="M12.7502 0.25C12.485 0.25 12.2306 0.355357 12.0431 0.542893C11.8556 0.73043 11.7502 0.984784 11.7502 1.25V2.75C11.7502 3.01522 11.8556 3.26957 12.0431 3.45711C12.2306 3.64464 12.485 3.75 12.7502 3.75C13.0154 3.75 13.2698 3.64464 13.4573 3.45711C13.6448 3.26957 13.7502 3.01522 13.7502 2.75V1.25C13.7502 0.984784 13.6448 0.73043 13.4573 0.542893C13.2698 0.355357 13.0154 0.25 12.7502 0.25ZM4.2502 10.75C3.98498 10.75 3.73063 10.6446 3.54309 10.4571C3.35556 10.2696 3.2502 10.0152 3.2502 9.75C3.2502 9.48478 3.35556 9.23043 3.54309 9.04289C3.73063 8.85536 3.98498 8.75 4.2502 8.75H5.7502C6.01541 8.75 6.26977 8.85536 6.4573 9.04289C6.64484 9.23043 6.7502 9.48478 6.7502 9.75C6.7502 10.0152 6.64484 10.2696 6.4573 10.4571C6.26977 10.6446 6.01541 10.75 5.7502 10.75H4.2502ZM21.2502 10.75C21.5154 10.75 21.7698 10.6446 21.9573 10.4571C22.1448 10.2696 22.2502 10.0152 22.2502 9.75C22.2502 9.48478 22.1448 9.23043 21.9573 9.04289C21.7698 8.85536 21.5154 8.75 21.2502 8.75H19.7502C19.485 8.75 19.2306 8.85536 19.0431 9.04289C18.8556 9.23043 18.7502 9.48478 18.7502 9.75C18.7502 10.0152 18.8556 10.2696 19.0431 10.4571C19.2306 10.6446 19.485 10.75 19.7502 10.75H21.2502ZM6.0322 4.4475C5.84469 4.25993 5.73938 4.00555 5.73942 3.74032C5.73947 3.4751 5.84487 3.22076 6.03245 3.03325C6.22002 2.84574 6.4744 2.74043 6.73962 2.74047C7.00485 2.74052 7.25919 2.84593 7.4467 3.0335L8.5072 4.0935C8.60011 4.18634 8.67382 4.29658 8.72413 4.41791C8.77444 4.53924 8.80035 4.6693 8.8004 4.80065C8.80045 4.93199 8.77462 5.06207 8.7244 5.18343C8.67418 5.3048 8.60054 5.41509 8.5077 5.508C8.41485 5.60091 8.30462 5.67462 8.18329 5.72493C8.06195 5.77524 7.9319 5.80116 7.80055 5.8012C7.6692 5.80125 7.53913 5.77542 7.41776 5.7252C7.2964 5.67498 7.18611 5.60134 7.0932 5.5085L6.0322 4.4475ZM19.4672 3.0335C19.6547 3.22103 19.76 3.47534 19.76 3.7405C19.76 4.00566 19.6547 4.25997 19.4672 4.4475L18.4062 5.508C18.314 5.60351 18.2036 5.67969 18.0816 5.7321C17.9596 5.78451 17.8284 5.8121 17.6956 5.81325C17.5628 5.8144 17.4311 5.7891 17.3082 5.73882C17.1853 5.68854 17.0737 5.61429 16.9798 5.52039C16.8859 5.4265 16.8117 5.31485 16.7614 5.19195C16.7111 5.06906 16.6858 4.93738 16.6869 4.8046C16.6881 4.67182 16.7157 4.5406 16.7681 4.4186C16.8205 4.29659 16.8967 4.18625 16.9922 4.094L18.0527 3.0335C18.1456 2.9406 18.2558 2.8669 18.3772 2.81662C18.4985 2.76634 18.6286 2.74046 18.7599 2.74046C18.8913 2.74046 19.0214 2.76634 19.1427 2.81662C19.2641 2.8669 19.3743 2.9406 19.4672 3.0335ZM12.5247 5.02C12.6715 4.88582 12.8656 4.81544 13.0643 4.82435C13.263 4.83326 13.45 4.92072 13.5842 5.0675L13.5857 5.069L13.5872 5.071L13.5922 5.076L13.6072 5.093L13.6572 5.1515C13.7005 5.2015 13.7619 5.276 13.8412 5.375C14.0007 5.575 14.2337 5.879 14.5402 6.312C15.1527 7.177 16.0612 8.5575 17.2632 10.64C18.4657 12.722 19.2067 14.1985 19.6497 15.1625C19.8139 15.5159 19.9679 15.8738 20.1117 16.236C20.1564 16.3496 20.1987 16.4642 20.2387 16.5795L20.2457 16.601L20.2482 16.608L20.2492 16.6115V16.6125C20.3069 16.8003 20.2885 17.0032 20.1982 17.1776C20.1079 17.352 19.9527 17.4841 19.766 17.5453C19.5794 17.6065 19.3762 17.5921 19.2 17.5051C19.0239 17.4181 18.889 17.2654 18.8242 17.08C18.2017 17.289 17.5692 17.495 16.9332 17.6965C16.7342 17.2118 16.5247 16.7315 16.3047 16.256C15.6887 14.9283 15.0135 13.6288 14.2812 12.3615C13.5502 11.0937 12.7627 9.85931 11.9212 8.662C11.6196 8.23427 11.3087 7.81317 10.9887 7.399C11.4812 6.949 11.9757 6.504 12.4682 6.0695C12.3382 5.92206 12.2713 5.72948 12.2819 5.5332C12.2924 5.33692 12.3796 5.15264 12.5247 5.02ZM15.4297 17.985C15.4524 18.038 15.4745 18.091 15.4962 18.144C14.4762 18.4565 13.4612 18.756 12.4802 19.037L12.6187 19.553C12.8449 20.3972 12.7265 21.2968 12.2895 22.0537C11.8525 22.8107 11.1327 23.363 10.2884 23.5893C9.4442 23.8155 8.54466 23.6971 7.78771 23.2601C7.03077 22.8231 6.47843 22.1033 6.2522 21.259L6.1192 20.763C5.6292 20.888 5.2092 20.9945 4.8742 21.078C4.0497 21.284 3.1517 21.006 2.6227 20.287C2.4327 20.028 2.2202 19.722 2.0492 19.425C1.87912 19.1244 1.72556 18.8148 1.5892 18.4975C1.2312 17.68 1.4392 16.763 2.0302 16.152C3.3352 14.802 6.4762 11.594 9.8822 8.42L9.9857 8.555C10.1532 8.776 10.3967 9.104 10.6952 9.527C11.5107 10.6873 12.2738 11.8835 12.9822 13.112C13.6919 14.3398 14.3462 15.5987 14.9432 16.885C15.1607 17.355 15.3232 17.73 15.4302 17.985H15.4297ZM8.0547 20.258L8.1842 20.741C8.22819 20.9053 8.30412 21.0594 8.40764 21.1943C8.51117 21.3293 8.64026 21.4426 8.78756 21.5276C8.93486 21.6127 9.09747 21.668 9.26612 21.6902C9.43476 21.7124 9.60613 21.7012 9.77045 21.6572C9.93476 21.6133 10.0888 21.5373 10.2238 21.4338C10.3588 21.3303 10.472 21.2012 10.5571 21.0539C10.6422 20.9066 10.6974 20.744 10.7197 20.5753C10.7419 20.4067 10.7307 20.2353 10.6867 20.071L10.5552 19.58C9.6617 19.8275 8.8192 20.055 8.0547 20.258Z" fill="#616161"/>
</svg>
